# xmcd
#
# Track frame offsets: 
#        150
#        9598
#        27179
#        33681
#        48365
#        60782
#        74230
#        85496
#        96386
#        112054
#        129645
#        141961
#        164630
#
# Disc length: 2376 seconds
#
# Revision: 0
# Processed by: cddbd v1.5.2PL0 Copyright (c) Steve Scherf et al.
# Submitted via: ExactAudioCopy v0.95b2
#
DISCID=c009460d
DTITLE=Mojo Bones - Call Me On the Phone Sometime
DYEAR=2005
DGENRE=Blues
TTITLE0=Like a Stone
TTITLE1=Rollin' and Tumblin
TTITLE2=They're Red Hot
TTITLE3=St. James Infimary
TTITLE4=One Way Out
TTITLE5=Iodine in my Coffee
TTITLE6=Little Geneva
TTITLE7=Don't Start me Talking
TTITLE8=T' aint Nobody's Business
TTITLE9=Rollin' Stone
TTITLE10=Come Back Baby
TTITLE11=Night Sky
TTITLE12=Sweet Home Chicago
EXTD=
EXTT0=
EXTT1=
EXTT2=
EXTT3=
EXTT4=
EXTT5=
EXTT6=
EXTT7=
EXTT8=
EXTT9=
EXTT10=
EXTT11=
EXTT12=
PLAYORDER=
